<svg xmlns="http://www.w3.org/2000/svg" width="32" height="32" viewBox="0 0 32 32">
  <defs>
    <!-- Main gradient for the ALM symbol -->
    <linearGradient id="almGradient" x1="0%" y1="0%" x2="100%" y2="100%">
      <stop offset="0%" stop-color="#6366f1"/>
      <stop offset="50%" stop-color="#8b5cf6"/>
      <stop offset="100%" stop-color="#a855f7"/>
    </linearGradient>
    
    <!-- Shadow gradient -->
    <linearGradient id="shadowGradient" x1="0%" y1="0%" x2="100%" y2="100%">
      <stop offset="0%" stop-color="#1f2937" stop-opacity="0.8"/>
      <stop offset="100%" stop-color="#374151" stop-opacity="0.6"/>
    </linearGradient>
    
    <!-- Liquidity flow gradient -->
    <linearGradient id="flowGradient" x1="0%" y1="0%" x2="100%" y2="0%">
      <stop offset="0%" stop-color="#10b981"/>
      <stop offset="100%" stop-color="#06b6d4"/>
    </linearGradient>
  </defs>
  
  <!-- Background circle -->
  <circle cx="16" cy="16" r="15" fill="#111827" stroke="url(#almGradient)" stroke-width="2"/>
  
  <!-- Shadow effect (offset circle) -->
  <circle cx="17" cy="17" r="12" fill="url(#shadowGradient)" opacity="0.3"/>
  
  <!-- Main ALM symbol - stylized "A" with liquidity flows -->
  <g transform="translate(16,16)">
    <!-- Central "A" shape -->
    <path d="M-6,-8 L0,-8 L6,4 L3,4 L1.5,0 L-1.5,0 L-3,4 L-6,4 Z" fill="url(#almGradient)"/>
    <rect x="-2" y="-2" width="4" height="1.5" fill="url(#almGradient)"/>
    
    <!-- Liquidity flow indicators -->
    <circle cx="-8" cy="-2" r="1.5" fill="url(#flowGradient)">
      <animate attributeName="opacity" values="0.5;1;0.5" dur="2s" repeatCount="indefinite"/>
    </circle>
    <circle cx="8" cy="-2" r="1.5" fill="url(#flowGradient)">
      <animate attributeName="opacity" values="1;0.5;1" dur="2s" repeatCount="indefinite"/>
    </circle>
    <circle cx="0" cy="8" r="1.5" fill="url(#flowGradient)">
      <animate attributeName="opacity" values="0.5;1;0.5" dur="2s" repeatCount="indefinite" begin="1s"/>
    </circle>
    
    <!-- Connection lines (representing liquidity flows) -->
    <line x1="-6.5" y1="-2" x2="-3" y2="-1" stroke="url(#flowGradient)" stroke-width="1" opacity="0.7"/>
    <line x1="6.5" y1="-2" x2="3" y2="-1" stroke="url(#flowGradient)" stroke-width="1" opacity="0.7"/>
    <line x1="0" y1="6.5" x2="0" y2="3" stroke="url(#flowGradient)" stroke-width="1" opacity="0.7"/>
  </g>
  
  <!-- Subtle outer glow -->
  <circle cx="16" cy="16" r="15" fill="none" stroke="url(#almGradient)" stroke-width="0.5" opacity="0.3"/>
</svg>